<svg height="512pt" viewBox="0 -5 512.00037 512" width="512pt" xmlns="http://www.w3.org/2000/svg"><path d="m493.902344 367.335938-59.605469 68.125h-383.203125v-316.242188h442.808594zm0 0" fill="#99d8aa"/><path d="m368.445312 501.066406c-.96875 0-1.929687-.164062-2.84375-.484375l-53.855468-19.066406c-4.433594-1.570313-6.753906-6.4375-5.183594-10.871094.441406-1.246093 1.167969-2.375 2.117188-3.292969l36.789062-35.449218c3.382812-3.265625 8.773438-3.171875 12.039062.210937.921876.953125 1.609376 2.109375 2.003907 3.375l17.03125 54.5c1.410156 4.484375-1.082031 9.265625-5.570313 10.675781-.828125.261719-1.6875.394532-2.554687.394532zm0 0" fill="#fdc9a6"/><path d="m161.796875 493.90625h-102.1875c-28.222656 0-51.09375-14.359375-51.09375-42.578125v-25.546875h204.375v25.546875c0 28.21875-22.875 42.578125-51.09375 42.578125zm0 0" fill="#ea9d2d"/><path d="m434.296875 435.460938v-68.125h59.605469zm0 0" fill="#8dc79d"/><g fill="#85bc94"><path d="m221.40625 281.015625h17.03125v17.03125h-17.03125zm0 0"/><path d="m110.703125 281.015625h17.03125v17.03125h-17.03125zm0 0"/><path d="m110.703125 178.828125h17.03125v17.03125h-17.03125zm0 0"/><path d="m110.703125 212.890625h17.03125v17.03125h-17.03125zm0 0"/><path d="m110.703125 246.953125h17.03125v17.03125h-17.03125zm0 0"/><path d="m281.015625 323.59375h17.03125v17.03125h-17.03125zm0 0"/><path d="m246.953125 178.828125h17.03125v17.03125h-17.03125zm0 0"/><path d="m212.890625 178.828125h17.03125v17.03125h-17.03125zm0 0"/><path d="m178.828125 178.828125h17.03125v17.03125h-17.03125zm0 0"/><path d="m144.765625 178.828125h17.03125v17.03125h-17.03125zm0 0"/><path d="m383.203125 255.46875h17.03125v17.03125h-17.03125zm0 0"/><path d="m383.203125 289.53125h17.03125v17.03125h-17.03125zm0 0"/><path d="m383.203125 323.59375h17.03125v17.03125h-17.03125zm0 0"/><path d="m349.140625 323.59375h17.03125v17.03125h-17.03125zm0 0"/><path d="m315.078125 323.59375h17.03125v17.03125h-17.03125zm0 0"/></g><path d="m212.890625 442.8125h-204.375v-59.609375c0-32.921875 26.6875-59.609375 59.609375-59.609375h85.15625c32.921875 0 59.609375 26.6875 59.609375 59.609375zm0 0" fill="#f3af3e"/><path d="m119.21875 400.234375h-17.03125c-14.109375 0-25.546875-14.707031-25.546875-32.847656v-43.792969h68.125v43.792969c0 18.140625-11.4375 32.847656-25.546875 32.847656zm0 0" fill="#ea9d2d"/><path d="m102.1875 323.59375h17.03125v51.09375h-17.03125zm0 0" fill="#fbb540"/><path d="m314.589844 481.984375c-2.3125-.003906-4.527344-.949219-6.128906-2.617187l-94.523438-98.097657c-13.210938-13.390625-13.066406-34.957031.324219-48.171875 13.390625-13.210937 34.957031-13.066406 48.171875.324219.1875.191406.371094.382813.554687.578125l94.523438 98.097656c3.261719 3.386719 3.164062 8.777344-.222657 12.042969l-36.789062 35.457031c-1.585938 1.53125-3.703125 2.386719-5.910156 2.386719zm0 0" fill="#f27e55"/><path d="m231.863281 396.164062h-.164062c-2.253907-.046874-4.394531-.984374-5.960938-2.605468l-11.808593-12.265625c-13.214844-13.390625-13.066407-34.957031.324218-48.167969 13.390625-13.214844 34.957032-13.066406 48.171875.324219.183594.191406.371094.382812.550781.574219l11.820313 12.261718c3.265625 3.386719 3.164063 8.777344-.21875 12.042969l-36.796875 35.449219c-1.589844 1.53125-3.710938 2.386718-5.917969 2.386718zm0 0" fill="#d9d9d9"/><path d="m255.28125 424.210938-35.46875-36.75 49.058594-47.28125 35.460937 36.789062zm0 0" fill="#6fbbc6"/><path d="m472.617188 119.21875c-.019532-5.453125-.589844-10.890625-1.703126-16.230469l29.4375-17.03125-25.546874-44.28125-29.4375 17.082031c-8.175782-7.257812-17.734376-12.789062-28.101563-16.257812v-33.984375h-51.09375v33.984375c-10.375 3.457031-19.9375 8.988281-28.101563 16.257812l-29.472656-17.03125-25.546875 44.28125 29.378907 16.964844c-2.179688 10.730469-2.179688 21.792969 0 32.527344l-29.355469 16.929688 25.546875 44.28125 29.472656-17.03125c8.160156 7.265624 17.710938 12.796874 28.078125 16.253906v33.988281h51.09375v-33.988281c10.371094-3.453125 19.933594-8.984375 28.101563-16.253906l29.46875 17.03125 25.546874-44.28125-29.378906-16.964844c1.082032-5.347656 1.621094-10.789063 1.613282-16.246094zm-80.898438 42.578125c-23.515625 0-42.578125-19.0625-42.578125-42.578125s19.0625-42.578125 42.578125-42.578125 42.578125 19.0625 42.578125 42.578125-19.0625 42.578125-42.578125 42.578125zm0 0" fill="#d9d9d9"/><path d="m474.8125 41.726562-29.445312 17.03125c-8.175782-7.261718-17.734376-12.789062-28.101563-16.257812v-33.984375h-51.09375v33.984375c-10.375 3.457031-19.9375 8.988281-28.101563 16.257812l-29.472656-17.03125-25.546875 44.28125 29.378907 16.964844c-1.082032 5.347656-1.621094 10.789063-1.609376 16.246094h38.320313c0-23.515625 19.0625-42.578125 42.578125-42.578125s42.578125 19.0625 42.578125 42.578125h38.320313c-.019532-5.453125-.589844-10.890625-1.703126-16.230469l29.4375-17.03125zm0 0" fill="#cdcdcd"/><path d="m391.71875 170.3125c28.214844 0 51.09375-22.875 51.09375-51.09375s-22.875-51.09375-51.09375-51.09375-51.09375 22.875-51.09375 51.09375c.027344 28.207031 22.886719 51.066406 51.09375 51.09375zm0-17.03125c-15.488281-.058594-28.984375-10.554688-32.855469-25.546875h65.707031c-3.871093 14.992187-17.367187 25.488281-32.851562 25.546875zm0-68.125c15.484375.058594 28.980469 10.554688 32.851562 25.546875h-65.707031c3.871094-14.992187 17.367188-25.488281 32.855469-25.546875zm0 0"/><path d="m502.417969 143.804688v-33.101563h-21.882813c-.109375-1.105469-.078125-2.1875-.230468-3.304687l31.695312-18.289063-34.0625-59-31.71875 18.320313c-6.253906-4.835938-13.128906-8.808594-20.4375-11.8125v-36.617188h-68.125v36.617188c-7.3125 3.015624-14.1875 6.996093-20.4375 11.835937l-31.722656-18.339844-34.0625 58.996094 31.652344 18.265625c-.144532 1.105469-.117188 2.222656-.21875 3.328125h-260.289063v209.390625c-25.707031 10.417969-42.5390625 35.371094-42.578125 63.109375v68.125c0 30.558594 23.953125 51.09375 59.609375 51.09375h102.1875c35.652344 0 59.609375-20.53125 59.609375-51.09375v-7.351563h52.914062l34.140626 35.449219c.058593.070313.144531.085938.210937.15625.472656.398438.984375.75 1.527344 1.046875.425781.304688.878906.570313 1.351562.800782.078125 0 .121094.09375.195313.117187l53.855468 19.066406c.914063.320313 1.875.484375 2.84375.484375 4.703126.003906 8.515626-3.808594 8.515626-8.511718 0-.867188-.132813-1.730469-.394532-2.558594l-14.398437-46.050782h73.34375l66.910156-73.34375v-204.714843l9.578125-16.589844zm-17.027344-9.835938-5.042969-2.90625c.144532-1.105469.117188-2.222656.222656-3.328125h4.820313zm-190.683594-51.09375 17.03125-29.5 27.421875 15.832031 4.589844-4.078125c7.292969-6.507812 15.835938-11.457031 25.113281-14.546875l5.824219-1.941406v-31.609375h34.0625v31.609375l5.824219 1.941406c9.277343 3.09375 17.824219 8.042969 25.121093 14.554688l4.589844 4.070312 27.410156-15.832031 17.03125 29.5-27.378906 15.804688 1.226563 6.011718c2.015625 9.585938 2.035156 19.484375.0625 29.082032l-1.226563 6.019531 23.980469 13.84375v7.664062l-13.695313 23.71875-27.417968-15.832031-4.589844 4.078125c-7.292969 6.507813-15.839844 11.457031-25.113281 14.546875l-5.824219 1.984375v31.609375h-34.0625v-31.609375l-5.828125-1.941406c-9.273437-3.089844-17.816406-8.039063-25.109375-14.546875l-4.589844-4.078125-27.421875 15.828125-17.03125-29.496094 27.316407-15.769531-1.222657-6.023438c-1.953125-9.601562-1.953125-19.5 0-29.105469l1.222657-6.019531zm-277.675781 300.328125c.027344-28.207031 22.886719-51.066406 51.09375-51.09375v35.277344c0 22.804687 15.277344 41.363281 34.0625 41.363281h17.03125c18.785156 0 34.0625-18.558594 34.0625-41.363281v-35.277344c28.207031.027344 51.0625 22.886719 51.09375 51.09375v51.09375h-187.34375zm102.1875-8.515625v-42.578125h17.03125v35.277344c0 13.191406-7.800781 24.332031-17.03125 24.332031h-17.03125c-9.230469 0-17.03125-11.140625-17.03125-24.332031v-35.277344h17.03125v42.578125zm42.578125 110.703125h-102.1875c-20.582031 0-42.578125-8.953125-42.578125-34.0625h187.34375c0 25.109375-21.996094 34.0625-42.578125 34.0625zm59.609375-58.445313v-37.875l36.496094 37.875zm93.40625 34.496094-47.277344-49.046875 24.523438-23.632812 47.277344 49.050781zm-59.097656-61.3125-11.8125-12.261718 24.527344-23.636719 11.808593 12.261719zm-23.632813-24.523437-5.90625-6.128907c-6.53125-6.773437-6.332031-17.554687.441407-24.082031 3.171874-3.0625 7.410156-4.769531 11.820312-4.769531h.324219c4.507812.082031 8.796875 1.957031 11.921875 5.210938l5.910156 6.128906zm98.324219 94.457031 16.945312-16.335938 7.859376 25.113282zm112.40625-59.355469v-34.855469h31.796875zm42.578125-51.886719h-59.609375v68.125h-73.234375l-54.101563-56.132812-35.484374-36.789062c-12.875-13.542969-34.289063-14.082032-47.832032-1.207032-2.980468 2.832032-5.417968 6.183594-7.195312 9.894532-12.804688-17.359376-33.082032-27.613282-54.652344-27.632813h-85.15625c-2.847656.015625-5.691406.214844-8.515625.585937v-187.929687h243.257813c.101562 1.105469.074218 2.222656.21875 3.328125l-31.652344 18.265625 34.0625 58.996094 31.722656-18.316407c6.253906 4.832032 13.125 8.804688 20.4375 11.8125v36.617188h68.125v-36.617188c7.308594-3.015624 14.183594-6.996093 20.4375-11.835937l31.726562 18.316406 7.441407-12.882812v163.402343zm0 0"/><path d="m221.40625 281.015625h17.03125v17.03125h-17.03125zm0 0"/><path d="m110.703125 281.015625h17.03125v17.03125h-17.03125zm0 0"/><path d="m110.703125 178.828125h17.03125v17.03125h-17.03125zm0 0"/><path d="m110.703125 212.890625h17.03125v17.03125h-17.03125zm0 0"/><path d="m110.703125 246.953125h17.03125v17.03125h-17.03125zm0 0"/><path d="m281.015625 323.59375h17.03125v17.03125h-17.03125zm0 0"/><path d="m246.953125 178.828125h17.03125v17.03125h-17.03125zm0 0"/><path d="m212.890625 178.828125h17.03125v17.03125h-17.03125zm0 0"/><path d="m178.828125 178.828125h17.03125v17.03125h-17.03125zm0 0"/><path d="m144.765625 178.828125h17.03125v17.03125h-17.03125zm0 0"/><path d="m383.203125 255.46875h17.03125v17.03125h-17.03125zm0 0"/><path d="m383.203125 289.53125h17.03125v17.03125h-17.03125zm0 0"/><path d="m383.203125 323.59375h17.03125v17.03125h-17.03125zm0 0"/><path d="m349.140625 323.59375h17.03125v17.03125h-17.03125zm0 0"/><path d="m315.078125 323.59375h17.03125v17.03125h-17.03125zm0 0"/></svg>