<svg height="496pt" viewBox="0 0 496 496" width="496pt" xmlns="http://www.w3.org/2000/svg"><path d="m336 424h-176l-80 32v32h336v-32zm0 0" fill="#969faa"/><path d="m336 376v48h-176v-48zm0 0" fill="#aab2bd"/><path d="m488 304v48c0 13.28125-10.71875 24-24 24h-432c-13.28125 0-24-10.71875-24-24v-16h336l24-32zm0 0" fill="#969faa"/><path d="m464 8h-432c-13.28125 0-24 10.71875-24 24v304h336l24-32h120v-272c0-13.28125-10.71875-24-24-24zm0 0" fill="#69d6f4"/><path d="m400 152h32v120h-32zm0 0" fill="#fcd770"/><path d="m336 208h32v64h-32zm0 0" fill="#fcd770"/><path d="m328 152h-104v-104c44.878906 0 83.121094 28.398438 97.679688 68.238281 4.082031 11.121094 6.320312 23.203125 6.320312 35.761719zm0 0" fill="#ef7385"/><path d="m282.078125 218.078125c-15.519531 13.683594-35.839844 21.921875-58.078125 21.921875v-48c22.078125 0 40-17.921875 40-40h48c0 26.398438-11.601562 50-29.921875 66.078125zm0 0" fill="#f5f7fa"/><path d="m224 152h40c0 22.078125-17.921875 40-40 40-20.960938 0-38.160156-16.160156-39.839844-36.640625-.082031-1.121094-.160156-2.238281-.160156-3.359375 0-22.078125 17.921875-40 40-40zm0 0" fill="#ffeaa7"/><path d="m224 192v48c-20.71875 0-39.761719-7.121094-54.71875-19.121094.558594-1.039062 1.117188-2.160156 1.679688-3.277344 8.480468-17.28125 13.039062-36.5625 13.039062-56.320312 0-.402344 0-.882812 0-1.28125 0-1.519531-.078125-3.121094-.160156-4.640625h.320312c1.679688 20.480469 18.878906 36.640625 39.839844 36.640625zm0 0" fill="#ef7385"/><path d="m172.238281 107.761719c-2.796875-6.320313-6.238281-12.402344-10.238281-18.242188 15.921875-15.757812 37.839844-25.519531 62-25.519531v48c-22.078125 0-40 17.921875-40 40 0 1.121094.078125 2.238281.160156 3.359375h-.320312c-.71875-16.558594-4.71875-32.71875-11.601563-47.597656zm0 0" fill="#f5f7fa"/><path d="m183.839844 155.359375c-.71875-16.558594-4.71875-32.71875-11.601563-47.597656-2.796875-6.320313-6.238281-12.402344-10.238281-18.242188-3.28125-4.960937-6.960938-9.679687-10.960938-14.160156l-39.039062-43.359375-39.039062 43.359375c-8.722657 9.761719-15.921876 20.71875-21.199219 32.402344-1.203125 2.476562-2.242188 4.957031-3.203125 7.519531-5.4375 14.160156-8.398438 29.277344-8.558594 44.71875v1.28125c0 39.519531 18.320312 76.957031 49.519531 101.277344l22.480469 17.441406 22.480469-17.441406c14.640625-11.359375 26.398437-25.597656 34.800781-41.679688.558594-1.039062 1.117188-2.160156 1.679688-3.277344 8.480468-17.28125 13.039062-36.5625 13.039062-56.320312 0-.402344 0-.882812 0-1.28125 0-1.519531-.078125-3.121094-.160156-4.640625zm0 0" fill="#b4dd7f"/><path d="m464 0h-432c-17.648438 0-32 14.351562-32 32v320c0 17.648438 14.351562 32 32 32h120v34.585938l-80 32v45.414062h352v-45.414062l-80-32v-34.585938h120c17.648438 0 32-14.351562 32-32v-320c0-17.648438-14.351562-32-32-32zm-432 16h432c8.824219 0 16 7.175781 16 16v264h-116l-24 32h-324v-296c0-8.824219 7.175781-16 16-16zm302.464844 416 40 16h-252.929688l40-16zm-246.464844 48v-16h320v16zm376-112h-208v16h72v32h-160v-32h72v-16h-208c-8.824219 0-16-7.175781-16-16v-8h332l24-32h108v40c0 8.824219-7.175781 16-16 16zm0 0"/><path d="m448 328h16v16h-16zm0 0"/><path d="m416 328h16v16h-16zm0 0"/><path d="m384 328h16v16h-16zm0 0"/><path d="m84.617188 268.878906 19.382812 15.042969v28.078125h16v-28.078125l19.382812-15.042969c13.03125-10.109375 23.777344-22.40625 32.328126-36.421875 15.410156 10.054688 33.648437 15.542969 52.289062 15.542969 20.839844 0 40.96875-6.792969 57.496094-19.191406l51.191406 51.191406h131.3125v-16h-24v-120h-48v120h-16v-64h-48v52.6875l-34.550781-34.550781c15.085937-15.832031 24.292969-36.328125 26.117187-58.136719h16.433594v-8c0-13.246094-2.296875-26.207031-6.808594-38.496094-16.054687-43.96875-58.335937-73.503906-105.191406-73.503906h-8v16.390625c-19.367188 1.59375-37.609375 8.898437-52.703125 21.234375-1.984375-2.570312-4.089844-5.113281-6.3125-7.609375l-44.984375-49.96875-45 49.984375c-9.34375 10.457031-16.929688 22.039062-22.433594 34.242188-1.308594 2.703124-2.445312 5.40625-3.46875 8.140624-5.875 15.265626-8.929687 31.242188-9.097656 47.585938v1.28125c0 41.695312 19.664062 81.910156 52.617188 107.597656zm9.824218-12.632812c-23.769531-18.527344-39.519531-45.660156-44.546875-75.046875l54.105469 54.113281v28.351562zm9.558594-84.933594v41.375l-55.824219-55.824219c.441407-11.855469 2.640625-23.519531 6.550781-34.824219zm112 60.261719c-13.265625-1.285157-25.742188-5.773438-36.679688-13.230469 4.871094-10.527344 8.289063-21.703125 10.34375-33.175781 7 7.230469 16.113282 12.304687 26.34375 14.0625v32.34375zm-46.640625-109.621094c3.808594 10.894531 5.984375 22.222656 6.488281 33.839844.015625.335937.015625.671875.03125 1.007812l-55.878906 55.886719v-41.375zm-7.167969 95.222656c-8.023437 15.351563-19 28.496094-32.617187 39.0625l-9.574219 7.433594v-28.359375l54.128906-54.128906c-1.945312 11.457031-5.351562 22.71875-10.570312 33.335937zm245.808594-57.175781h16v104h-16zm-48 56v48h-16v-48zm-83.207031-3.921875c-12.570313 11.074219-28.242188 17.832031-44.792969 19.488281v-32.285156c20.054688-3.386719 35.886719-19.226562 39.28125-39.28125h32.292969c-2.023438 20.015625-11.511719 38.671875-26.78125 52.078125zm-44.792969-155.742187c36.910156 3.113281 69.320312 27.503906 82.167969 62.664062 2.960937 8.046875 4.800781 16.433594 5.503906 25h-87.671875zm22.863281 103.664062c-3.574219 13.769531-16 24-30.863281 24-16.519531 0-30.519531-12.863281-31.863281-29.222656-.066407-.929688-.136719-1.855469-.136719-2.777344 0-14.871094 10.238281-27.289062 24-30.863281v38.863281zm-38.863281-55.28125c-12.046875 2.035156-22.566406 8.546875-29.800781 17.792969-1.304688-4.34375-2.816407-8.632813-4.566407-12.847657l.015626-.015624-.03125-.03125c-.707032-1.695313-1.296876-3.433594-2.066407-5.105469-2.03125-4.582031-4.527343-9.105469-7.222656-13.535157 12.425781-10.527343 27.527344-16.992187 43.671875-18.59375zm-137.097656-24.007812 33.097656-36.757813 33.070312 36.734375c3.832032 4.296875 7.289063 8.753906 10.335938 13.359375 2.707031 3.953125 5.007812 8.015625 7.105469 12.136719l-42.511719 42.503906v-68.6875h-16v68.6875l-42.511719-42.511719c4.632813-9.070312 10.421875-17.640625 17.414063-25.464843zm0 0"/><path d="m168 264h56v16h-56zm0 0"/><path d="m240 264h56v16h-56zm0 0"/><path d="m168 296h128v16h-128zm0 0"/><path d="m344 72h120v16h-120zm0 0"/><path d="m448 104h16v16h-16zm0 0"/><path d="m416 104h16v16h-16zm0 0"/><path d="m344 104h56v16h-56zm0 0"/></svg>