<svg id="Layer_35" enable-background="new 0 0 64 64" height="512" viewBox="0 0 64 64" width="512" xmlns="http://www.w3.org/2000/svg"><path d="m48.501 16.056.499.289v8.655h6v-8.655l.499-.289c2.159-1.251 3.501-3.572 3.501-6.056 0-3.86-3.141-7-7-7s-7 3.14-7 7c0 2.484 1.342 4.805 3.501 6.056zm4.499 6.944h-2v-2h2zm0-4h-2v-2h2zm-1-13c2.205 0 4 1.795 4 4s-1.795 4-4 4-4-1.795-4-4 1.795-4 4-4z"/><path d="m57 27h-13v28h13zm-6.5 26c-2.481 0-4.5-2.019-4.5-4.5s2.019-4.5 4.5-4.5 4.5 2.019 4.5 4.5-2.019 4.5-4.5 4.5zm4.5-14h-9v-2h9zm0-4h-9v-2h9zm0-4h-9v-2h9z"/><path d="m33 31h5v4h-5z"/><circle cx="50.5" cy="48.5" r="2.5"/><path d="m12.668 15.017-.643 7.719.975 1.461.975-1.462-.643-7.719c-.111-.003-.22-.016-.332-.016s-.221.013-.332.017z"/><path d="m59 29v28h-32v-28h-2v5 25h14.521l.3.397c.769 1.019 1.928 1.603 3.179 1.603s2.41-.584 3.18-1.603l.3-.397h14.52v-30z"/><path d="m28.447 15.105.553.277v9.618h6v-9.618l.553-.276c2.126-1.064 3.447-3.201 3.447-5.578v-5.114l-1.414-1.414h-2.586v5c0 1.654-1.346 3-3 3s-3-1.346-3-3v-5h-2.586l-1.414 1.414v5.114c0 2.377 1.321 4.514 3.447 5.577zm2.553 1.895h2v2h-2zm0 4h2v2h-2z"/><path d="m15.361 15.293.664 7.971-3.025 4.539-3.025-4.538.664-7.971c-4.376 1.065-7.639 5.007-7.639 9.706v9c0 1.654 1.346 3 3 3v-16h2v38c0 1.103.897 2 2 2s2-.897 2-2v-26h2v26c0 1.103.897 2 2 2s2-.897 2-2v-38h2v16c1.654 0 3-1.346 3-3v-7-2c0-4.699-3.263-8.641-7.639-9.707z"/><path d="m29 55h13v-28h-13zm11-6h-2v-2h2zm-9-20h9v8h-9zm0 10h9v2h-9zm0 4h9v2h-9zm0 4h5v2h-5zm0 4h9v2h-9z"/><circle cx="13" cy="8" r="5"/></svg>