<svg height="512" viewBox="0 0 57 56" width="512" xmlns="http://www.w3.org/2000/svg"><g id="030---Chained-To-Internet"><path id="Shape" d="m37 9.85c-2.2823143-.06151642-4.5531334-.34620613-6.78-.85-.7393528 2.5642656-1.1493138 5.2122099-1.22 7.88h8z"/><path id="Shape" d="m7 38.88c.55228475 0 1-.4477153 1-1v-2c0-.5522847-.44771525-1-1-1s-1 .4477153-1 1v2c0 .5522847.44771525 1 1 1z"/><path id="Shape" d="m7 20.88c.55228475 0 1-.4477153 1-1v-2c0-.5522847-.44771525-1-1-1s-1 .4477153-1 1v2c0 .5522847.44771525 1 1 1z"/><path id="Shape" d="m37 18.88h-8c.0625025 2.6597969.4623647 5.3009039 1.19 7.86 2.2370081-.5023735 4.5179665-.7837252 6.81-.84z"/><path id="Shape" d="m55.53 51-13.65-8.58c-.6035813-.362243-1.2961213-.5492288-2-.54h-26.88c-.5522847 0-1 .4477153-1 1v9c0 .5522847.4477153 1 1 1 2.24 0 3.88-.24 5.59 1.38 1.2550056 1.0046918 2.8030558 1.5733633 4.41 1.62 1.8 0 3.09.14 4.67-1.25 1.2349332-1.1149617 2.8362547-1.7376978 4.5-1.75h4.45c1.58 0 2.93-1.68 2.14-3h-5.24c-1.4253031.0022794-2.818578-.4226694-4-1.22l-.61-.4c-.2203997-.1483028-.3727332-.3782067-.4233875-.6389823-.0506542-.2607756.0045341-.5309895.1533875-.7510177.1467316-.2220203.3759089-.3763952.6367947-.4289477s.5319584.0010525.7532053.1489477c2.38 1.6 2 1.29 10 1.29.94 0 .2 0 14.66 4.95.5053405.2319596 1.1030404.0103405 1.335-.495.2319595-.5053405.0103405-1.1030404-.495-1.335z"/><path id="Shape" d="m18.66 12.88h-.66c-.5522847 0-1 .4477153-1 1s.4477153 1 1 1c.45 0 .07.29.66-2z"/><path id="Shape" d="m6 25.88c0 .5522847.44771525 1 1 1s1-.4477153 1-1v-2c0-.5522847-.44771525-1-1-1s-1 .4477153-1 1z"/><path id="Shape" d="m9 13.88c0-.5522847-.44771525-1-1-1h-2c-.55228475 0-1 .4477153-1 1s.44771525 1 1 1h2c.26521649 0 .5195704-.1053568.70710678-.2928932s.29289322-.4418903.29289322-.7071068z"/><path id="Shape" d="m8 29.88c0-.5522847-.44771525-1-1-1s-1 .4477153-1 1v2c0 .5522847.44771525 1 1 1s1-.4477153 1-1z"/><path id="Shape" d="m37 35.75v-7.85c-2.0655186.0511752-4.1214683.2989607-6.14.74 1.46 3.84 3.66 6.53 6.14 7.11z"/><path id="Shape" d="m25.27 30.59c1.9372336 1.9346175 4.2902543 3.4018354 6.88 4.29-1.4397684-1.6876444-2.5551739-3.6268905-3.29-5.72-1.2377966.3661172-2.4394778.8447813-3.59 1.43z"/><path id="Shape" d="m56 18.88h-7c-.0541727 2.8333981-.4640479 5.6487703-1.22 8.38 1.5044763.4455401 2.9588711 1.0453941 4.34 1.79 2.3159531-2.906029 3.6717826-6.4598398 3.88-10.17z"/><path id="Shape" d="m39 0v7.85c2.0655186-.05117524 4.1214683-.29896071 6.14-.74-1.46-3.84-3.66-6.53-6.14-7.11z"/><path id="Shape" d="m9 40.88h-5v13c0 .5522847.44771525 1 1 1h4c.55228475 0 1-.4477153 1-1s-.44771525-1-1-1h-1c-1.1045695 0-2-.8954305-2-2v-6c0-1.1045695.8954305-2 2-2h1c.55228475 0 1-.4477153 1-1s-.44771525-1-1-1z"/><path id="Shape" d="m20.05 16.88h7c.0534421-2.8367438.4633229-5.6555144 1.22-8.39-1.5113386-.44424331-2.9724973-1.04412269-4.36-1.79-2.3106979 2.91123262-3.6595654 6.4686086-3.86 10.18z"/><path id="Shape" d="m28.86 6.59c.7348261-2.09310954 1.8502316-4.03235555 3.29-5.72-2.5885347.89070903-4.9410145 2.35758964-6.88 4.29 1.1505222.5852187 2.3522034 1.06388279 3.59 1.43z"/><path id="Shape" d="m39 16.88h8c-.0706862-2.6677901-.4806472-5.3157344-1.22-7.88-2.2271997.50042855-4.4980148.78176848-6.78.84z"/><path id="Shape" d="m23.91 29.05c1.3811289-.7446059 2.8355237-1.3444599 4.34-1.79-.7660936-2.7299348-1.1860511-5.54533-1.25-8.38h-7c.2168202 3.7135186 1.5832633 7.2676686 3.91 10.17z"/><path id="Shape" d="m43.85 34.88c2.5897457-.8881646 4.9427664-2.3553825 6.88-4.29-1.1505222-.5852187-2.3522034-1.0638828-3.59-1.43-.7348261 2.0931095-1.8502316 4.0323556-3.29 5.72z"/><path id="Shape" d="m52.09 6.7c-1.3811289.74460586-2.8355237 1.34445994-4.34 1.79.7668185 2.7331896 1.1867818 5.5519832 1.25 8.39h7c-.2147765-3.7169881-1.5813331-7.27492851-3.91-10.18z"/><path id="Shape" d="m47.14 6.59c1.2377966-.36611721 2.4394778-.8447813 3.59-1.43-1.9389855-1.93241036-4.2914653-3.39929097-6.88-4.29 1.4397684 1.68764445 2.5551739 3.62689046 3.29 5.72z"/><path id="Shape" d="m0 42.88v9c0 .5522847.44771525 1 1 1h1v-11h-1c-.55228475 0-1 .4477153-1 1z"/><path id="Shape" d="m39 35.75c2.48-.58 4.68-3.27 6.14-7.11-2.0185317-.4410393-4.0744814-.6888248-6.14-.74z"/><path id="Shape" d="m9 44.88c-.55228475 0-1 .4477153-1 1v4c0 .5522847.44771525 1 1 1s1-.4477153 1-1v-4c0-.5522847-.44771525-1-1-1z"/><path id="Shape" d="m39 25.9c2.2819852.0582315 4.5528003.3395715 6.78.84.7377848-2.5577849 1.1477314-5.1989162 1.22-7.86h-8z"/><path id="Shape" d="m14 14.88c.5522847 0 1-.4477153 1-1s-.4477153-1-1-1h-2c-.5522847 0-1 .4477153-1 1s.4477153 1 1 1z"/><path id="Shape" d="m37 0c-2.48.58-4.68 3.27-6.14 7.11 2.0185317.44103929 4.0744814.68882476 6.14.74z"/></g></svg>