<svg id="Layer_1_1_" enable-background="new 0 0 64 64" height="512" viewBox="0 0 64 64" width="512" xmlns="http://www.w3.org/2000/svg"><path d="m51 31v-1-3h-20v3 1c0 5.514 4.486 10 10 10s10-4.486 10-10zm-15-.25c-.965 0-1.75-.785-1.75-1.75s.785-1.75 1.75-1.75 1.75.785 1.75 1.75-.785 1.75-1.75 1.75zm5 8c-2.068 0-3.75-1.683-3.75-3.75h1.5c0 1.24 1.009 2.25 2.25 2.25s2.25-1.01 2.25-2.25h1.5c0 2.067-1.682 3.75-3.75 3.75zm5-8c-.965 0-1.75-.785-1.75-1.75s.785-1.75 1.75-1.75 1.75.785 1.75 1.75-.785 1.75-1.75 1.75z"/><path d="m37 42.3v4.267c2.322 2.045 5.75 2.03 8 .007v-4.274c-1.253.445-2.596.7-4 .7s-2.747-.255-4-.7z"/><path d="m5.681 30.617.707 1.707c.155.374.069.805-.217 1.09l-.535.535 1.415 1.415.535-.536c.191-.191.447-.293.708-.293.129 0 .259.024.382.076l1.707.707c.373.155.617.52.617.924v.758h2v-.758c0-.404.244-.77.618-.924l1.707-.707c.372-.157.803-.07 1.09.217l.536.536 1.414-1.414-.535-.536c-.287-.285-.372-.716-.217-1.09l.707-1.707c.154-.373.518-.617.923-.617h.757v-2h-.757c-.404 0-.769-.244-.924-.617l-.707-1.707c-.155-.374-.069-.805.217-1.09l.535-.535-1.415-1.415-.535.536c-.287.286-.717.369-1.091.217l-1.706-.707c-.373-.155-.617-.52-.617-.924v-.758h-2v.758c0 .404-.244.77-.618.924l-1.706.707c-.374.152-.804.069-1.091-.217l-.535-.536-1.414 1.414.535.536c.287.285.372.716.217 1.09l-.707 1.707c-.155.373-.519.617-.924.617h-.757v2h.757c.405 0 .769.244.924.617zm6.319-6.617c2.757 0 5 2.243 5 5s-2.243 5-5 5-5-2.243-5-5 2.243-5 5-5z"/><path d="m55 48v12h5v-7c0-2.757-2.243-5-5-5z"/><path d="m46.383 48c-1.547 1.393-3.479 2.096-5.406 2.096-1.934 0-3.853-.706-5.367-2.096h-.887l6.277 10.984 6.277-10.984z"/><path d="m42.723 60h10.277v-12h-3.42z"/><path d="m56 21h2.001l-.001-2h-34v2h2z"/><path d="m23.279 41 1.334-4h-2.31l-6 4z"/><path d="m54.44 26.337c-.446.252-.923.457-1.44.562v2.101h.5c.827 0 1.5-.673 1.5-1.5 0-.462-.211-.884-.56-1.163z"/><path d="m27 27.5c0 .827.673 1.5 1.5 1.5h.5v-2.101c-.517-.105-.994-.31-1.44-.562-.349.279-.56.701-.56 1.163z"/><path d="m45.58 6.605-.593 3.559-1.973-.328.972-5.836h-5.973l.973 5.836-1.973.328-.583-3.501c-5.308 1.414-8.635 5.11-9.303 10.337h27.747c-.667-5.262-3.991-8.98-9.294-10.395z"/><path d="m54.829 23h-27.658c.413 1.164 1.525 2 2.829 2h22c1.304 0 2.416-.836 2.829-2z"/><circle cx="12" cy="29" r="3"/><path d="m8 17 2-3h4l2 3-1 3 4-4-3-6h-2v-8h-4v8h-2l-3 6 4 4z"/><path d="m5.414 45h2.586v-2h-.586z"/><path d="m31 40c0-.553-.448-1-1-1 0 2.209-1.791 4-4 4h-16v3c0 .552-.448 1-1 1h-5.586l-1.414 1.414v1.586h16.006l6.285 4h1.709l-4.8-6.4.8-.6.8-.6 1.269 1.693 4.731 6.307c.228.303.264.708.095 1.047s-.516.553-.895.553h-2c-.19 0-.376-.055-.537-.156l-3.463-2.204v6.36h15.277l-6.277-10.985zm-16 6h-2v-2h2zm4 0h-2v-2h2z"/></svg>