<svg id="Layer_3" enable-background="new 0 0 64 64" height="512" viewBox="0 0 64 64" width="512" xmlns="http://www.w3.org/2000/svg"><g><g><path d="m61 61h-6c-2.757 0-5-2.243-5-5v-6h2v6c0 1.654 1.346 3 3 3h6z"/></g><g><circle cx="18" cy="10" r="1"/><path d="m45 27h8v2h-8z"/><path d="m47 31h4v6h-4z"/><path d="m33 31h4v6h-4z"/><path d="m3 42c0 1.654 1.346 3 3 3h52c1.654 0 3-1.346 3-3v-3h-58zm53-1h2v2h-2zm-4 0h2v2h-2zm-4 0h2v2h-2z"/><path d="m31 27h8v2h-8z"/><circle cx="9" cy="19" r="2"/><path d="m58 3h-52c-1.654 0-3 1.346-3 3v31h28v-6h-1c-.553 0-1-.448-1-1v-4c0-.552.447-1 1-1h10c.553 0 1 .448 1 1v4c0 .552-.447 1-1 1h-1v6h6v-6h-1c-.553 0-1-.448-1-1v-4c0-.552.447-1 1-1h10c.553 0 1 .448 1 1v4c0 .552-.447 1-1 1h-1v6h8v-31c0-1.654-1.346-3-3-3zm-37 30c-1.654 0-3-1.346-3-3 0-.431.095-.839.259-1.209l-7.185-6.387c-.607.371-1.312.596-2.074.596-2.206 0-4-1.794-4-4s1.794-4 4-4c.74 0 1.424.215 2.019.567l4.281-4.281c-.187-.392-.3-.824-.3-1.286 0-1.654 1.346-3 3-3s3 1.346 3 3-1.346 3-3 3c-.462 0-.894-.113-1.285-.301l-4.281 4.281c.351.596.566 1.28.566 2.02 0 .717-.205 1.381-.536 1.963l7.176 6.378c.41-.211.868-.341 1.36-.341 1.654 0 3 1.346 3 3s-1.346 3-3 3zm38-13c0 .552-.447 1-1 1h-32c-.553 0-1-.448-1-1v-12c0-.552.447-1 1-1h32c.553 0 1 .448 1 1z"/><path d="m42 57h-20c-.552 0-1 .448-1 1v3h22v-3c0-.552-.448-1-1-1z"/><path d="m27 19h30v-10h-30zm2-8h26v2h-26zm0 4h26v2h-26z"/><path d="m50 47h2v2h-2z"/><path d="m25 47h14v8h-14z"/><circle cx="21" cy="30" r="1"/></g></g></svg>