<svg id="Layer_1" enable-background="new 0 0 511.106 511.106" height="512" viewBox="0 0 511.106 511.106" width="512" xmlns="http://www.w3.org/2000/svg"><g><g id="XMLID_5148_"><g id="XMLID_5150_"><path d="m225.261 511.106c-13.452 0-24.357-10.905-24.357-24.357v-194.689c0-13.452 10.905-24.357 24.357-24.357s24.357 10.905 24.357 24.357v194.689c0 13.452-10.905 24.357-24.357 24.357z" fill="#ffb69e"/></g><g id="XMLID_5149_"><path d="m284.491 511.106c-13.452 0-24.357-10.905-24.357-24.357v-194.689c0-13.452 10.905-24.357 24.357-24.357s24.357 10.905 24.357 24.357v194.689c0 13.452-10.905 24.357-24.357 24.357z" fill="#ffb69e"/></g></g><ellipse cx="254.876" cy="42.067" fill="#ffb69e" rx="42.067" ry="42.067" transform="matrix(.099 -.995 .995 .099 187.899 291.558)"/><g><path d="m129.409 260.012s-4.62 12.67-4.699 12.886c-3.849 10.528 34.269 24.49 38.127 13.94.074-.204 4.555-12.489 4.555-12.489s-12.098-11.897-17.293-13.793c-4.862-1.773-20.69-.544-20.69-.544z" fill="#fff"/><path d="m219.713 97.543c-21.725 0-37.515 13.895-46.932 41.298-11.281 32.828-33.645 94.459-43.372 121.172l37.982 14.336c6.573-18.05 19.13-52.632 30.097-83.398l-23.455 135.349c-1.195 6.896 4.136 13.215 11.11 13.215h70.406l10.304-118.599-10.304-123.373z" fill="#32285f"/><path d="m124.71 272.898c-3.849 10.528 1.565 22.184 12.093 26.033 10.505 3.841 22.176-1.543 26.034-12.093.074-.203-38.048-14.156-38.127-13.94z" fill="#ffb69e"/></g><g><path d="m381.697 260.012s4.62 12.67 4.699 12.886c3.849 10.528-34.269 24.49-38.127 13.94-.074-.204-4.555-12.489-4.555-12.489s12.098-11.897 17.293-13.793c4.862-1.773 20.69-.544 20.69-.544z" fill="#fff"/><path d="m291.393 97.543c21.725 0 37.515 13.895 46.932 41.298 11.281 32.828 33.645 94.459 43.372 121.172l-37.982 14.336c-6.573-18.05-19.13-52.632-30.097-83.398l23.455 135.349c1.195 6.896-4.136 13.215-11.11 13.215h-70.406v-241.972z" fill="#271f4a"/><path d="m386.396 272.898c3.849 10.528-1.565 22.184-12.093 26.033-10.505 3.841-22.176-1.543-26.034-12.093-.074-.203 38.048-14.156 38.127-13.94z" fill="#ffb69e"/></g><path d="m307.452 161.452h-31.655c-2.079 0-3.763 1.685-3.763 3.764v15.93c0 2.078 1.685 3.764 3.763 3.764h31.655c2.078 0 3.763-1.685 3.763-3.764v-15.93c.001-2.079-1.684-3.764-3.763-3.764z" fill="#fff"/><g><g><g><path d="m262.704 97.543-7.828 2.762-8.535-2.762h-20.192s6.507 38.872 20.947 49.859l7.653-.373 7.908.373c14.44-10.987 20.947-49.859 20.947-49.859z" fill="#fff"/><g fill="#1e1632"><path d="m262.704 97.543h-15.656c-1.968 0-3.454 1.785-3.096 3.721l2.578 13.963c.276 1.493 1.578 2.577 3.097 2.577h10.5c1.519 0 2.821-1.084 3.096-2.577l2.578-13.963c.357-1.935-1.129-3.721-3.097-3.721z"/><path d="m262.285 123.161c-.238-1.21-1.299-2.083-2.533-2.083h-9.752c-1.234 0-2.295.873-2.533 2.083l-2.543 12.927c-.067.34-.065.691.007 1.03l2.165 10.284c2.376 1.808 4.968 2.862 7.78 2.862s5.404-1.054 7.78-2.862l2.165-10.284c.072-.34.074-.69.007-1.03z"/></g></g></g></g></g></svg>