<svg id="Layer_3" enable-background="new 0 0 64 64" height="512" viewBox="0 0 64 64" width="512" xmlns="http://www.w3.org/2000/svg"><g><path d="m16 18h-8c-1.105 0-2 .895-2 2v36h52v-36c0-1.105-.895-2-2-2h-8" fill="#758190"/><path d="m16 14 7-5.25h18l7 5.25z" fill="#f2c351"/><path d="m43 2c-1.105 0-2 .895-2 2v10h-18v-10c0-1.105.895-2 2-2z" fill="#c7e2fc"/><path d="m41 8h2c1.105 0 2-.895 2-2v-2c0-1.105-.895-2-2-2-1.105 0-2 .895-2 2z" fill="#a1cdfb"/><path d="m48 21h6c.552 0 1 .448 1 1v28c0 .552-.448 1-1 1h-44c-.552 0-1-.448-1-1v-28c0-.552.448-1 1-1h6" fill="#c7e2fc"/><path d="m40 36h8v-22h-32v22h8" fill="#f2c351"/><path d="m16 14 12.318 7.918c1.098.707 2.376 1.082 3.682 1.082 1.306 0 2.584-.375 3.682-1.082l12.318-7.918" fill="#f7d881"/><path d="m26 55c0 .552.448 1 1 1h10c.552 0 1-.448 1-1 0-.552.448-1 1-1h22c.552 0 1 .448 1 1v3c0 2.209-1.791 4-4 4h-52c-2.209 0-4-1.791-4-4v-3c0-.552.448-1 1-1h22c.552 0 1 .448 1 1z" fill="#a8b0bc"/><g><path d="m5 56.999h5.999v1.999h-5.999z" fill="#c1c8d1"/></g><g><path d="m53 56.999h5.999v1.999h-5.999z" fill="#c1c8d1"/></g><circle cx="32" cy="36" fill="#e39854" r="8"/><path d="m31 37-.671-4.027c-.172-1.033.624-1.973 1.671-1.973 1.047 0 1.843.94 1.671 1.973l-.671 4.027z" fill="#f7d881"/><g><path d="m31.999 41.998c-1.104 0-2-.896-2-1.999 0-1.104.896-2 2-2 1.103 0 1.999.896 1.999 2 0 1.103-.896 1.999-1.999 1.999z" fill="#f7d881"/></g><g><path d="m25.999 5h11.999v2h-11.999z" fill="#ebf7fe"/></g><g><path d="m25.999 9h11.999v2h-11.999z" fill="#ebf7fe"/></g><g><path d="m13.999 45.999h9.999v1.999h-9.999z" fill="#ebf7fe"/></g><g><path d="m40 45.999h9.999v1.999h-9.999z" fill="#ebf7fe"/></g><g><path d="m41.999 41.999h8.001v1.999h-8.001z" fill="#ebf7fe"/></g><g><path d="m13.999 41.999h8.001v1.999h-8.001z" fill="#ebf7fe"/></g><g><path d="m61 52.999h-2v-32.999c0-1.654-1.347-3-3-3h-7.002v-3c0-.327-.167-.604-.41-.786l.01-.014-5.6-4.2h.001c1.654 0 3-1.345 3-3l-.001-2c0-1.654-1.345-3-2.999-3h-17.999c-1.654 0-3 1.346-3 3v4.249l-6.602 4.951.01.014c-.243.182-.41.459-.41.786v3h-6.998c-1.654 0-3 1.346-3 3v32.999h-2.002c-.534 0-1.037.209-1.415.588-.377.378-.584.88-.583 1.411v3.002c0 2.757 2.242 5 4.998 5h52.002c2.756 0 4.999-2.243 4.999-5l.001-3.002c0-1.102-.897-1.999-2-1.999zm-16.405-37.999-9.454 6.078c-1.879 1.208-4.404 1.208-6.283 0l-9.455-6.078zm-2.596-2v-2.25l3 2.25zm-14.223 9.759c1.263.812 2.723 1.241 4.224 1.241 1.499 0 2.959-.429 4.222-1.24l10.776-6.928v19.167h-6.058c-.501-4.493-4.317-7.999-8.94-7.999-4.624 0-8.44 3.506-8.941 7.998h-6.06v-19.167zm11.223 13.241c0 3.859-3.14 6.999-6.999 6.999-3.86 0-7-3.14-7-6.999 0-3.86 3.14-7 7-7 3.859 0 6.999 3.14 6.999 7zm-23 .998h7.06c.499 4.494 4.316 8.001 8.941 8.001 4.624 0 8.442-3.507 8.94-8.001h7.058c.553 0 1-.447 1-1v-13.998h5.002v28l-44-.001-.001-27.999h5v13.998c0 .553.447 1 1 1zm26-32.998c0-.268.104-.519.293-.708.188-.188.439-.292.707-.292.552 0 .999.448.999 1l.001 2c0 .551-.448 1-1 1h-1zm-17.999 0c0-.552.448-1 1-1h15.169c-.111.317-.17.654-.17 1v9h-15.999zm-2 9h-3.001l3.001-2.251zm-15 7c0-.552.448-1 1-1h6.999v1h-5c-1.104 0-2 .897-2 2l.001 28c0 1.103.896 2 2 2h44c1.103 0 2-.898 2-2.002v-27.998c0-1.103-.897-2-2-2h-5.002v-1h7.002c.551 0 1 .448 1 1v32.999h-18.001c-1.103 0-1.999.897-1.999 2l-10 .001v-.002c0-1.102-.897-1.999-2-1.999h-18zm19 34.999h-1s0-.001-.001-.001zm34.999 3.001c0 1.653-1.346 3-2.999 3h-52.002c-1.653 0-2.998-1.347-2.998-3l-.002-3.001 22.002.001c0 1.103.896 1.999 1.998 1.999h10.002c1.103 0 2-.897 1.999-2l22.001-.001z"/><path d="m5 56.999h5.999v1.999h-5.999z"/><path d="m53 56.999h5.999v1.999h-5.999z"/><path d="m32 30c-.001 0-.001 0 0 0-.795 0-1.544.347-2.057.952s-.732 1.401-.603 2.185l.672 4.027c.082.482.499.836.988.836h.999.999c.489 0 .906-.354.987-.836l.672-4.027c.13-.783-.09-1.58-.603-2.185s-1.261-.952-2.054-.952zm.684 2.808-.533 3.192h-.305l-.532-3.192c-.046-.276.077-.471.154-.563.079-.092.251-.245.532-.245.279 0 .451.153.528.245.078.091.202.287.156.563z"/><path d="m29.999 40c0 1.103.896 1.999 2 1.999 1.103 0 1.999-.896 1.999-1.999 0-1.104-.896-2-1.999-2s-2 .896-2 2z"/><path d="m25.999 5h11.999v2h-11.999z"/><path d="m25.999 9h11.999v2h-11.999z"/><path d="m13.999 45.999h9.999v1.999h-9.999z"/><path d="m40 45.999h9.999v1.999h-9.999z"/><path d="m41.999 42h8.001v2h-8.001z"/><path d="m13.999 42h8.001v2h-8.001z"/></g></g></svg>