<svg id="Layer_1" enable-background="new 0 0 512 512" height="512" viewBox="0 0 512 512" width="512" xmlns="http://www.w3.org/2000/svg"><g><path d="m130.791 221.43 53.637-44.697h-25.895v-17.133c0-8.284-6.716-15-15-15s-15 6.716-15 15v17.133h-34.266v-17.133c0-8.284-6.716-15-15-15s-15 6.716-15 15v27.133l-40.701 54.267h93.64c2.638-7.474 7.242-14.284 13.585-19.57z"/><path d="m114.6 271h-98.53v181h98.53zm-34.267 146.733c0 8.284-6.716 15-15 15s-15-6.716-15-15v-24.1c0-8.284 6.716-15 15-15s15 6.716 15 15zm0-88.366c0 8.284-6.716 15-15 15s-15-6.716-15-15v-24.1c0-8.284 6.716-15 15-15s15 6.716 15 15z"/><path d="m397.4 452h98.53v-181h-98.53zm34.267-146.733c0-8.284 6.716-15 15-15s15 6.716 15 15v24.1c0 8.284-6.716 15-15 15s-15-6.716-15-15zm0 88.366c0-8.284 6.716-15 15-15s15 6.716 15 15v24.1c0 8.284-6.716 15-15 15s-15-6.716-15-15z"/><path d="m394.794 241h93.64l-40.7-54.267v-27.133c0-8.284-6.716-15-15-15s-15 6.716-15 15v17.133h-34.267v-17.133c0-8.284-6.716-15-15-15s-15 6.716-15 15v17.133h-25.895l53.636 44.696c6.344 5.287 10.948 12.097 13.586 19.571z"/><path d="m144.6 452h222.8v-181h-222.8zm138.534-146.733c0-8.284 6.716-15 15-15s15 6.716 15 15v24.1c0 8.284-6.716 15-15 15s-15-6.716-15-15zm0 88.366c0-8.284 6.716-15 15-15s15 6.716 15 15v24.1c0 8.284-6.716 15-15 15s-15-6.716-15-15zm-84.268-88.366c0-8.284 6.716-15 15-15s15 6.716 15 15v24.1c0 8.284-6.716 15-15 15s-15-6.716-15-15zm0 88.366c0-8.284 6.716-15 15-15s15 6.716 15 15v24.1c0 8.284-6.716 15-15 15s-15-6.716-15-15z"/><path d="m246.397 164.143-92.228 76.857h203.662l-92.229-76.857c-5.562-4.636-13.642-4.636-19.205 0z"/><path d="m271 18.936v-3.936c0-8.284-6.716-15-15-15s-15 6.716-15 15v3.935c-27.691 6.728-48.2 31.652-48.2 61.398h126.4c0-29.78-20.535-54.672-48.2-61.397z"/><path d="m497 482h-482c-8.284 0-15 6.716-15 15s6.716 15 15 15h482c8.284 0 15-6.716 15-15s-6.716-15-15-15z"/><path d="m227.192 141.097c8.069-6.726 18.301-10.431 28.808-10.431s20.738 3.705 28.809 10.431l6.763 5.636h27.628v-36.4h-126.4v36.4h27.628z"/></g></svg>