<svg id="Layer_1" enable-background="new 0 0 512 512" height="512" viewBox="0 0 512 512" width="512" xmlns="http://www.w3.org/2000/svg"><g><g fill="#e4f4ff"><path d="m131.75 128.886h248.5v375.614h-248.5z"/><path d="m28.789 234.212h102.961v270.288h-102.961z"/><path d="m380.25 234.212h102.961v270.288h-102.961z"/></g><path d="m380.25 234.212h26.524v270.288h-26.524z" fill="#c0eaf7"/><path d="m105.226 234.212h26.524v270.288h-26.524z" fill="#c0eaf7"/><path d="m301.99 36.33v33.99h-29.03v28.83h-34.11v-28.83h-28.84v-33.99h28.84v-28.83h34.11v28.83z" fill="#ff2261"/><path d="m301.99 36.33v33.99h-29.03v28.83h-17.15v-29.5c0-3.76 3.04-6.81 6.8-6.81h22.22v-18.98h-22.22c-3.76 0-6.8-3.05-6.8-6.8v-29.56h17.15v28.83z" fill="#b7305d"/></g><g><path d="m504.5 497h-13.789v-28.038c0-4.142-3.357-7.5-7.5-7.5s-7.5 3.358-7.5 7.5v28.038h-87.961v-255.288h87.961v192.185c0 4.142 3.357 7.5 7.5 7.5s7.5-3.358 7.5-7.5v-192.185h13.789c4.143 0 7.5-3.358 7.5-7.5s-3.357-7.5-7.5-7.5h-116.75v-90.326h7.542c4.143 0 7.5-3.358 7.5-7.5s-3.357-7.5-7.5-7.5h-61.051c-4.143 0-7.5 3.358-7.5 7.5s3.357 7.5 7.5 7.5h38.509v360.614h-92.064v-71.577c0-4.142-3.357-7.5-7.5-7.5s-7.5 3.358-7.5 7.5v71.577h-19.371v-71.577c0-4.142-3.357-7.5-7.5-7.5s-7.5 3.358-7.5 7.5v71.577h-30.63c-4.143 0-7.5 3.358-7.5 7.5s3.357 7.5 7.5 7.5h303.815c4.143 0 7.5-3.358 7.5-7.5s-3.357-7.5-7.5-7.5z"/><path d="m165.564 497h-26.314v-360.614h160.11c4.143 0 7.5-3.358 7.5-7.5s-3.357-7.5-7.5-7.5h-35.818v-14.731h9.421c4.143 0 7.5-3.358 7.5-7.5v-21.331h21.527c4.143 0 7.5-3.358 7.5-7.5v-33.993c0-4.142-3.357-7.5-7.5-7.5h-21.527v-21.331c0-4.142-3.357-7.5-7.5-7.5h-34.112c-4.143 0-7.5 3.358-7.5 7.5v21.331h-21.341c-4.143 0-7.5 3.358-7.5 7.5v33.993c0 4.142 3.357 7.5 7.5 7.5h21.341v21.331c0 4.142 3.357 7.5 7.5 7.5h9.691v14.731h-131.75c-4.143 0-7.5 3.358-7.5 7.5s3.357 7.5 7.5 7.5h7.458v90.326h-116.75c-4.143 0-7.5 3.358-7.5 7.5s3.357 7.5 7.5 7.5h13.789v22.637c0 4.142 3.357 7.5 7.5 7.5s7.5-3.358 7.5-7.5v-22.637h87.961v255.288h-87.961v-197.493c0-4.142-3.357-7.5-7.5-7.5s-7.5 3.358-7.5 7.5v197.493h-13.789c-4.143 0-7.5 3.358-7.5 7.5s3.357 7.5 7.5 7.5h158.064c4.143 0 7.5-3.358 7.5-7.5s-3.357-7.5-7.5-7.5zm73.287-434.176h-21.341v-18.993h21.341c4.143 0 7.5-3.358 7.5-7.5v-21.331h19.112v21.331c0 4.142 3.357 7.5 7.5 7.5h21.527v18.993h-21.527c-4.143 0-7.5 3.358-7.5 7.5v21.331h-19.112v-21.331c0-4.142-3.358-7.5-7.5-7.5z"/><path d="m169.36 154.578c-4.143 0-7.5 3.358-7.5 7.5v19.804c0 4.142 3.357 7.5 7.5 7.5s7.5-3.358 7.5-7.5v-19.804c0-4.142-3.357-7.5-7.5-7.5z"/><path d="m169.417 206.868c-4.143 0-7.5 3.358-7.5 7.5v19.804c0 4.142 3.357 7.5 7.5 7.5s7.5-3.358 7.5-7.5v-19.804c0-4.142-3.357-7.5-7.5-7.5z"/><path d="m169.473 293.751c4.143 0 7.5-3.358 7.5-7.5v-19.804c0-4.142-3.357-7.5-7.5-7.5s-7.5 3.358-7.5 7.5v19.804c0 4.143 3.357 7.5 7.5 7.5z"/><path d="m169.528 311.106c-4.143 0-7.5 3.358-7.5 7.5v19.804c0 4.142 3.357 7.5 7.5 7.5s7.5-3.358 7.5-7.5v-19.804c0-4.142-3.357-7.5-7.5-7.5z"/><path d="m203.73 154.578c-4.143 0-7.5 3.358-7.5 7.5v19.804c0 4.142 3.357 7.5 7.5 7.5s7.5-3.358 7.5-7.5v-19.804c0-4.142-3.357-7.5-7.5-7.5z"/><path d="m203.787 206.868c-4.143 0-7.5 3.358-7.5 7.5v19.804c0 4.142 3.357 7.5 7.5 7.5s7.5-3.358 7.5-7.5v-19.804c0-4.142-3.357-7.5-7.5-7.5z"/><path d="m203.843 258.948c-4.143 0-7.5 3.358-7.5 7.5v19.804c0 4.142 3.357 7.5 7.5 7.5s7.5-3.358 7.5-7.5v-19.804c0-4.142-3.358-7.5-7.5-7.5z"/><path d="m211.398 318.606c0-4.142-3.357-7.5-7.5-7.5s-7.5 3.358-7.5 7.5v19.804c0 4.142 3.357 7.5 7.5 7.5s7.5-3.358 7.5-7.5z"/><path d="m238.73 154.578c-4.143 0-7.5 3.358-7.5 7.5v19.804c0 4.142 3.357 7.5 7.5 7.5s7.5-3.358 7.5-7.5v-19.804c0-4.142-3.357-7.5-7.5-7.5z"/><path d="m238.787 206.868c-4.143 0-7.5 3.358-7.5 7.5v19.804c0 4.142 3.357 7.5 7.5 7.5s7.5-3.358 7.5-7.5v-19.804c0-4.142-3.357-7.5-7.5-7.5z"/><path d="m238.843 258.948c-4.143 0-7.5 3.358-7.5 7.5v19.804c0 4.142 3.357 7.5 7.5 7.5s7.5-3.358 7.5-7.5v-19.804c0-4.142-3.358-7.5-7.5-7.5z"/><path d="m246.398 318.606c0-4.142-3.357-7.5-7.5-7.5s-7.5 3.358-7.5 7.5v19.804c0 4.142 3.357 7.5 7.5 7.5s7.5-3.358 7.5-7.5z"/><path d="m273.102 154.578c-4.143 0-7.5 3.358-7.5 7.5v19.804c0 4.142 3.357 7.5 7.5 7.5s7.5-3.358 7.5-7.5v-19.804c0-4.142-3.358-7.5-7.5-7.5z"/><path d="m273.157 206.868c-4.143 0-7.5 3.358-7.5 7.5v19.804c0 4.142 3.357 7.5 7.5 7.5s7.5-3.358 7.5-7.5v-19.804c0-4.142-3.357-7.5-7.5-7.5z"/><path d="m273.213 258.948c-4.143 0-7.5 3.358-7.5 7.5v19.804c0 4.142 3.357 7.5 7.5 7.5s7.5-3.358 7.5-7.5v-19.804c0-4.142-3.358-7.5-7.5-7.5z"/><path d="m280.77 318.606c0-4.142-3.357-7.5-7.5-7.5s-7.5 3.358-7.5 7.5v19.804c0 4.142 3.357 7.5 7.5 7.5s7.5-3.358 7.5-7.5z"/><path d="m300.602 162.078v19.804c0 4.142 3.357 7.5 7.5 7.5s7.5-3.358 7.5-7.5v-19.804c0-4.142-3.357-7.5-7.5-7.5s-7.5 3.358-7.5 7.5z"/><path d="m308.157 206.868c-4.143 0-7.5 3.358-7.5 7.5v19.804c0 4.142 3.357 7.5 7.5 7.5s7.5-3.358 7.5-7.5v-19.804c0-4.142-3.357-7.5-7.5-7.5z"/><path d="m308.213 258.948c-4.143 0-7.5 3.358-7.5 7.5v19.804c0 4.142 3.357 7.5 7.5 7.5s7.5-3.358 7.5-7.5v-19.804c0-4.142-3.358-7.5-7.5-7.5z"/><path d="m315.77 318.606c0-4.142-3.357-7.5-7.5-7.5s-7.5 3.358-7.5 7.5v19.804c0 4.142 3.357 7.5 7.5 7.5s7.5-3.358 7.5-7.5z"/><path d="m342.472 154.578c-4.143 0-7.5 3.358-7.5 7.5v19.804c0 4.142 3.357 7.5 7.5 7.5s7.5-3.358 7.5-7.5v-19.804c0-4.142-3.358-7.5-7.5-7.5z"/><path d="m342.527 206.868c-4.143 0-7.5 3.358-7.5 7.5v19.804c0 4.142 3.357 7.5 7.5 7.5s7.5-3.358 7.5-7.5v-19.804c0-4.142-3.357-7.5-7.5-7.5z"/><path d="m342.583 258.948c-4.143 0-7.5 3.358-7.5 7.5v19.804c0 4.142 3.357 7.5 7.5 7.5s7.5-3.358 7.5-7.5v-19.804c0-4.142-3.357-7.5-7.5-7.5z"/><path d="m169.389 400.437c4.143 0 7.5-3.358 7.5-7.5v-19.804c0-4.142-3.357-7.5-7.5-7.5s-7.5 3.358-7.5 7.5v19.804c0 4.142 3.357 7.5 7.5 7.5z"/><path d="m169.444 417.923c-4.143 0-7.5 3.358-7.5 7.5v49.805c0 4.142 3.357 7.5 7.5 7.5s7.5-3.358 7.5-7.5v-49.805c0-4.142-3.357-7.5-7.5-7.5z"/><path d="m203.759 400.437c4.143 0 7.5-3.358 7.5-7.5v-19.804c0-4.142-3.357-7.5-7.5-7.5s-7.5 3.358-7.5 7.5v19.804c0 4.142 3.357 7.5 7.5 7.5z"/><path d="m203.814 482.728c4.143 0 7.5-3.358 7.5-7.5v-49.805c0-4.142-3.357-7.5-7.5-7.5s-7.5 3.358-7.5 7.5v49.805c0 4.142 3.358 7.5 7.5 7.5z"/><path d="m63.112 258.901c-4.143 0-7.5 3.358-7.5 7.5v19.804c0 4.142 3.357 7.5 7.5 7.5s7.5-3.358 7.5-7.5v-19.804c0-4.142-3.357-7.5-7.5-7.5z"/><path d="m63.168 311.06c-4.143 0-7.5 3.358-7.5 7.5v19.804c0 4.142 3.357 7.5 7.5 7.5s7.5-3.358 7.5-7.5v-19.804c0-4.142-3.357-7.5-7.5-7.5z"/><path d="m97.482 258.901c-4.143 0-7.5 3.358-7.5 7.5v19.804c0 4.142 3.357 7.5 7.5 7.5s7.5-3.358 7.5-7.5v-19.804c0-4.142-3.357-7.5-7.5-7.5z"/><path d="m97.538 311.06c-4.143 0-7.5 3.358-7.5 7.5v19.804c0 4.142 3.357 7.5 7.5 7.5s7.5-3.358 7.5-7.5v-19.804c0-4.142-3.357-7.5-7.5-7.5z"/><path d="m55.528 392.89c0 4.142 3.357 7.5 7.5 7.5s7.5-3.358 7.5-7.5v-19.804c0-4.142-3.357-7.5-7.5-7.5s-7.5 3.358-7.5 7.5z"/><path d="m63.084 417.876c-4.143 0-7.5 3.358-7.5 7.5v49.805c0 4.142 3.357 7.5 7.5 7.5s7.5-3.358 7.5-7.5v-49.805c0-4.142-3.357-7.5-7.5-7.5z"/><path d="m89.898 392.89c0 4.142 3.357 7.5 7.5 7.5s7.5-3.358 7.5-7.5v-19.804c0-4.142-3.357-7.5-7.5-7.5s-7.5 3.358-7.5 7.5z"/><path d="m97.454 417.876c-4.143 0-7.5 3.358-7.5 7.5v49.805c0 4.142 3.357 7.5 7.5 7.5s7.5-3.358 7.5-7.5v-49.805c0-4.142-3.357-7.5-7.5-7.5z"/><path d="m414.56 293.705c4.143 0 7.5-3.358 7.5-7.5v-19.804c0-4.142-3.357-7.5-7.5-7.5s-7.5 3.358-7.5 7.5v19.804c0 4.142 3.357 7.5 7.5 7.5z"/><path d="m422.115 318.56c0-4.142-3.357-7.5-7.5-7.5s-7.5 3.358-7.5 7.5v19.804c0 4.142 3.357 7.5 7.5 7.5s7.5-3.358 7.5-7.5z"/><path d="m448.93 293.705c4.143 0 7.5-3.358 7.5-7.5v-19.804c0-4.142-3.357-7.5-7.5-7.5s-7.5 3.358-7.5 7.5v19.804c0 4.142 3.357 7.5 7.5 7.5z"/><path d="m456.485 318.56c0-4.142-3.357-7.5-7.5-7.5s-7.5 3.358-7.5 7.5v19.804c0 4.142 3.357 7.5 7.5 7.5s7.5-3.358 7.5-7.5z"/><path d="m414.476 400.39c4.143 0 7.5-3.358 7.5-7.5v-19.804c0-4.142-3.357-7.5-7.5-7.5s-7.5 3.358-7.5 7.5v19.804c0 4.142 3.357 7.5 7.5 7.5z"/><path d="m414.531 482.682c4.143 0 7.5-3.358 7.5-7.5v-49.805c0-4.142-3.357-7.5-7.5-7.5s-7.5 3.358-7.5 7.5v49.805c0 4.142 3.358 7.5 7.5 7.5z"/><path d="m448.846 400.39c4.143 0 7.5-3.358 7.5-7.5v-19.804c0-4.142-3.357-7.5-7.5-7.5s-7.5 3.358-7.5 7.5v19.804c0 4.142 3.357 7.5 7.5 7.5z"/><path d="m448.901 482.682c4.143 0 7.5-3.358 7.5-7.5v-49.805c0-4.142-3.357-7.5-7.5-7.5s-7.5 3.358-7.5 7.5v49.805c0 4.142 3.358 7.5 7.5 7.5z"/><path d="m238.759 400.437c4.143 0 7.5-3.358 7.5-7.5v-19.804c0-4.142-3.357-7.5-7.5-7.5s-7.5 3.358-7.5 7.5v19.804c0 4.142 3.357 7.5 7.5 7.5z"/><path d="m273.129 400.437c4.143 0 7.5-3.358 7.5-7.5v-19.804c0-4.142-3.357-7.5-7.5-7.5s-7.5 3.358-7.5 7.5v19.804c0 4.142 3.357 7.5 7.5 7.5z"/><path d="m308.129 400.437c4.143 0 7.5-3.358 7.5-7.5v-19.804c0-4.142-3.357-7.5-7.5-7.5s-7.5 3.358-7.5 7.5v19.804c0 4.142 3.357 7.5 7.5 7.5z"/><path d="m308.186 482.728c4.143 0 7.5-3.358 7.5-7.5v-49.805c0-4.142-3.357-7.5-7.5-7.5s-7.5 3.358-7.5 7.5v49.805c0 4.142 3.357 7.5 7.5 7.5z"/><path d="m342.499 400.437c4.143 0 7.5-3.358 7.5-7.5v-19.804c0-4.142-3.357-7.5-7.5-7.5s-7.5 3.358-7.5 7.5v19.804c0 4.142 3.357 7.5 7.5 7.5z"/><path d="m342.556 482.728c4.143 0 7.5-3.358 7.5-7.5v-49.805c0-4.142-3.357-7.5-7.5-7.5s-7.5 3.358-7.5 7.5v49.805c0 4.142 3.357 7.5 7.5 7.5z"/><path d="m350.14 318.606c0-4.142-3.357-7.5-7.5-7.5s-7.5 3.358-7.5 7.5v19.804c0 4.142 3.357 7.5 7.5 7.5s7.5-3.358 7.5-7.5z"/></g></svg>