<svg id="_x33_0" enable-background="new 0 0 64 64" height="512" viewBox="0 0 64 64" width="512" xmlns="http://www.w3.org/2000/svg"><g><g><g><path d="m45.36 13.64c.4.22.64.64.64 1.09 0 .7-.57 1.27-1.27 1.27h-2.73-36-2.73c-.7 0-1.27-.57-1.27-1.27 0-.45.24-.87.64-1.09l19.49-11.14c.57-.33 1.21-.5 1.87-.5s1.3.17 1.87.5z" fill="#fcd770"/></g><g><path d="m6 16v14h17l7-5.23h4l6 4.61v-5.38h2v-8z" fill="#e6e9ed"/></g><g><path d="m40 24h20v6h-20z" fill="#cf9e76"/></g><g><path d="m23.2 30-4.68 3.6c-.15.11-.27.25-.34.41l-.01-.01h-14.17-1c-.55 0-1-.45-1-1v-2c0-.55.45-1 1-1h3 16z" fill="#ccd1d9"/></g><g><path d="m44 34h16v28h-16z" fill="#e6e9ed"/></g><g><path d="m4 34h16v28h-16z" fill="#e6e9ed"/></g><g><path d="m62 31v2c0 .55-.45 1-1 1h-1-14.17l-.01.01c-.07-.16-.19-.3-.34-.41l-4.68-3.6h3.2 4 4 4 4 1c.55 0 1 .45 1 1z" fill="#ccd1d9"/></g><g><path d="m34 20v4.77l-.21-.16c-.51-.4-1.14-.61-1.79-.61s-1.28.21-1.79.61l-.21.16v-4.77z" fill="#69d6f4"/></g><g><path d="m26 20v7.85l-2.8 2.15h-1.2v-10z" fill="#69d6f4"/></g><g><path d="m10 20h8v6h-8z" fill="#69d6f4"/></g><g><path d="m8 40h8v6h-8z" fill="#69d6f4"/></g><g><path d="m48 38h8v4h-8z" fill="#69d6f4"/></g><g><path d="m48 42h8v4h-8z" fill="#69d6f4"/></g><g><path d="m56 46v4h-2-4-2v-4z" fill="#69d6f4"/></g><g><path d="m45.82 34.01c.12.2.18.42.18.65 0 .74-.6 1.34-1.34 1.34h-.66-4-16-4-.66c-.74 0-1.34-.6-1.34-1.34 0-.23.06-.45.18-.65.07-.16.19-.3.34-.41l4.68-3.6 2.8-2.15 4-3.08.21-.16c.51-.4 1.14-.61 1.79-.61s1.28.21 1.79.61l.21.16 6 4.61.8.62 4.68 3.6c.15.11.27.25.34.41z" fill="#fcd770"/></g><g><path d="m24 51.34.01.01c-1.26 1.54-2.01 3.51-2.01 5.65v-6c0-.55-.45-1-1-1h-1v-14h4z" fill="#ccd1d9"/></g><g><path d="m44 36v14h-1c-.55 0-1 .45-1 1v6c0-2.14-.75-4.11-2.01-5.65l.01-.01v-15.34z" fill="#ccd1d9"/></g><g><path d="m40 36v15.34l-.01.01c-1.02-1.29-2.4-2.28-3.99-2.83v-.01-8.51h-8v8.51.01c-1.59.55-2.97 1.54-3.99 2.83l-.01-.01v-15.34z" fill="#e6e9ed"/></g><g><path d="m36 48.51v.01c-.94-.34-1.95-.52-3-.52h-1-1c-1.05 0-2.06.18-3 .52v-.01-8.51h8z" fill="#aab2bd"/></g><g><path d="m39.99 51.35c-1.02-1.29-2.4-2.28-3.99-2.83-.94-.34-1.95-.52-3-.52h-1-1c-1.05 0-2.06.18-3 .52-1.59.55-2.97 1.54-3.99 2.83-1.26 1.54-2.01 3.51-2.01 5.65v5h10 10v-5c0-2.14-.75-4.11-2.01-5.65z" fill="#d3a06c"/></g><g><path d="m62 51v11h-4v-4-4-4h2 1c.55 0 1 .45 1 1z" fill="#b27946"/></g><g><path d="m54 54h4v4h-4z" fill="#cf9e76"/></g><g><path d="m54 58v4h-4v-4-4-4h4v4z" fill="#b27946"/></g><g><path d="m46 54h4v4h-4z" fill="#cf9e76"/></g><g><path d="m46 58v4h-4v-5-6c0-.55.45-1 1-1h1 2v4z" fill="#b27946"/></g><g><path d="m22 57v5h-4v-4-4-3c0-.55.45-1 1-1h1 1c.55 0 1 .45 1 1z" fill="#b27946"/></g><g><path d="m14 54h4v4h-4z" fill="#cf9e76"/></g><g><path d="m14 58v4h-4v-4-4-3c0-.55.45-1 1-1h2c.55 0 1 .45 1 1v3z" fill="#b27946"/></g><g><path d="m6 54h4v4h-4z" fill="#cf9e76"/></g><g><path d="m6 58v4h-4v-11c0-.55.45-1 1-1h1 1c.55 0 1 .45 1 1v3z" fill="#b27946"/></g></g><g><path d="m35 55h2v2h-2z"/><path d="m27 55h2v2h-2z"/><path d="m17 39h-10v8h10zm-8 2h2v4h-2zm6 4h-2v-4h2z"/><path d="m63 25v-2h-20v-6h1.734c1.249 0 2.266-1.017 2.266-2.266 0-.812-.438-1.565-1.142-1.967l-19.494-11.139c-1.437-.821-3.292-.821-4.729 0l-19.493 11.139c-.704.402-1.142 1.156-1.142 1.967 0 1.249 1.017 2.266 2.266 2.266h1.734v12h-2c-1.103 0-2 .897-2 2v2c0 1.103.897 2 2 2v14c-1.103 0-2 .897-2 2v12h62v-12c0-1.103-.897-2-2-2v-14c1.103 0 2-.897 2-2v-2c0-1.103-.897-2-2-2v-4zm-10 4v-4h2v4zm-4 28h-2v-2h2zm0-4h-2v-2h2zm-2 6h2v2h-2zm4-8h2v10h-2zm6 6h-2v-2h2zm-2 2h2v2h-2zm2-6h-2v-2h2zm-2-12h-6v-2h6zm-6 2h6v2h-6zm0 4h6v2h-6zm-8 4v-14h2v12c-1.103 0-2 .897-2 2zm-10 10h-8v-4c0-4.411 3.589-8 8-8zm-24-6h2v2h-2zm6 6h-2v-10h2zm2-6h2v2h-2zm0 4h2v2h-2zm6-22h2v14c0-1.103-.897-2-2-2zm0 14v10h-2v-10zm10-4c-.685 0-1.354.07-2 .202v-6.202h6v6.202c-.646-.132-1.315-.202-2-.202zm-4-8v8.841c-.716.314-1.383.713-2 1.178v-12.019h14v12.019c-.617-.465-1.284-.865-2-1.178v-8.841zm17.66-4h-25.32c-.187 0-.34-.152-.34-.34 0-.105.05-.206.133-.27l11.685-8.988c.336-.259.756-.402 1.182-.402s.846.143 1.183.402l11.684 8.987c.083.065.133.166.133.271 0 .188-.153.34-.34.34zm-19.66-7.646-2 1.538v-7.892h2zm8-4.193c-.655-.163-1.345-.163-2 0v-2.161h2zm8 5.731v-3.892h2v4h-1.86zm4-3.892h2v4h-2zm4 0h2v4h-2zm-46-10.266c0-.095.051-.183.134-.23l19.494-11.14c.417-.238.892-.364 1.372-.364s.955.126 1.372.364l19.495 11.14c.082.047.133.135.133.23 0 .147-.119.266-.266.266h-41.468c-.147 0-.266-.119-.266-.266zm4 2.266h34v6h-2v4.354l-4-3.077v-5.277h-6v5.277l-2 1.538v-6.815h-6v10h-14zm-4 14h17.26l-2.347 1.806c-.074.057-.133.129-.199.194h-14.714zm2 30h-2v-10h2zm0-26h12.034c.15 1.016.949 1.816 1.966 1.966v12.034c-1.103 0-2 .897-2 2v2h-2v-2c0-1.103-.897-2-2-2h-2c-1.103 0-2 .897-2 2v2h-2v-2c0-1.103-.897-2-2-2zm2 24h2v2h-2zm34 2h-8v-12c4.411 0 8 3.589 8 8zm2-10h2v10h-2zm18 10h-2v-10h2zm-2-12h-2v-12h-10v12h-2v-12.034c1.017-.15 1.816-.949 1.966-1.966h12.034zm2-16h-14.713c-.066-.065-.125-.138-.2-.195l-2.347-1.805h17.26zm-2-4h-2v-4h2z"/><path d="m9 19v8h10v-8zm2 2h2v4h-2zm6 4h-2v-4h2z"/></g></g></svg>