<svg id="Layer_5" enable-background="new 0 0 64 64" height="512" viewBox="0 0 64 64" width="512" xmlns="http://www.w3.org/2000/svg"><g><path d="m8.653 27.42.419-4.192c-1.83-1.027-3.072-2.98-3.072-5.228 0-1.784.786-3.377 2.022-4.476-.012-.174-.022-.347-.022-.524 0-1.749.571-3.363 1.527-4.681-4.325 1.102-7.527 5.013-7.527 9.681 0 4.348 2.777 8.042 6.653 9.42z"/><path d="m23.011 24.06.415 4.154c2.065.616 3.574 2.521 3.574 4.786 0 .989-.293 1.907-.789 2.683 1.25.55 2.331 1.412 3.15 2.484 1.029-1.463 1.639-3.242 1.639-5.167 0-4.628-3.495-8.437-7.989-8.94z"/><path d="m16 19h6v-6c0-3.309-2.691-6-6-6s-6 2.691-6 6 2.691 6 6 6zm0-9c1.657 0 3 1.343 3 3s-1.343 3-3 3-3-1.343-3-3 1.343-3 3-3z"/><path d="m23 49c3.309 0 6-2.691 6-6s-2.691-6-6-6-6 2.691-6 6 2.691 6 6 6zm0-9c1.657 0 3 1.343 3 3s-1.343 3-3 3-3-1.343-3-3 1.343-3 3-3z"/><path d="m7.341 48.606c-.772 2.059-1.193 4.207-1.296 6.394h23.872c-.217-1.485-.857-3.014-1.487-4.502-.173-.41-.332-.811-.495-1.214-1.361 1.071-3.073 1.716-4.935 1.716-3.719 0-6.845-2.555-7.737-6h-6.57z"/><path d="m16 21c-1.691 0-3.259-.531-4.552-1.43l-2.343 23.43h5.895c0-4.107 3.112-7.497 7.1-7.946l-1.405-14.054z"/><path d="m53.97 28c.232 0 .46.019.688.035l-1.227-7.363c-.161-.969-.991-1.672-1.973-1.672h-6.917c-.982 0-1.812.703-1.973 1.671l-1.227 7.363c.229-.015.456-.034.689-.034zm-4.97-5h2v2h-2zm-4 0h2v2h-2z"/><path d="m40.596 20.342c.062-.37.186-.713.338-1.038l-17.032-7.494c.058.389.098.784.098 1.19v1.356l16.354 7.434z"/><path d="m40.014 23.832-16.014-7.279v2.803l15.58 7.082z"/><path d="m22.375 8.195c1.101-1.336 2.759-2.195 4.625-2.195 3.314 0 6 2.686 6 6 0 .532-.077 1.045-.207 1.537l3.695 1.626c.331-.995.512-2.058.512-3.163 0-5.523-4.477-10-10-10-3.129 0-5.915 1.443-7.749 3.694 1.243.556 2.312 1.426 3.124 2.501z"/><path d="m3 57h30v4h-30z"/><path d="m54 41h-1v4h-10v-4h-1c-.551 0-1 .448-1 1v10c0 .552.449 1 1 1h12c.551 0 1-.448 1-1v-10c0-.552-.449-1-1-1z"/><path d="m45 41h6v2h-6z"/><path d="m53.97 30h-11.94c-4.435 0-8.03 3.595-8.03 8.03 0 1.917.686 3.77 1.933 5.226l3.067 3.577v-4.833c0-.883.391-1.67 1-2.22v-1.78c0-1.105.895-2 2-2h12c1.105 0 2 .895 2 2v1.78c.609.549 1 1.337 1 2.22v4.833l3.067-3.578c1.247-1.455 1.933-3.309 1.933-5.225 0-4.435-3.595-8.03-8.03-8.03z"/></g></svg>