<svg id="Layer_1" enable-background="new 0 0 512 512" height="512" viewBox="0 0 512 512" width="512" xmlns="http://www.w3.org/2000/svg"><g><path d="m117.659 366.207h132.115v-132.115h-132.115zm51.057-81.058h30v30h-30z"/><path d="m270.683 0h30v46.445h-30z"/><path d="m202.705 0h30v46.445h-30z"/><path d="m134.727 0h30v46.445h-30z"/><path d="m66.749 0h30v46.445h-30z"/><path d="m300.683 92.889h-30v-46.444h-37.978v46.445h-30v-46.445h-37.978v46.445h-30v-46.445h-37.978v46.445h-30v-46.445h-60.61v465.555h355.153v-465.555h-60.609zm15.576 303.318h-36.485v36.491h-30v-36.491h-162.115v-162.115h-36.491v-30h36.491v-36.485h30v36.485h162.115v162.115h36.485z"/><path d="m418.309 46.445h87.552v59.987h-87.552z"/><path d="m418.309 444.65 39.168 67.281h9.215l39.169-67.281v-13.64h-87.552z"/><path d="m418.309 136.431h87.552v264.579h-87.552z"/></g></svg>