<?xml version="1.0" encoding="iso-8859-1"?>
<!-- Generator: Adobe Illustrator 19.0.0, SVG Export Plug-In . SVG Version: 6.00 Build 0)  -->
<svg version="1.1" id="Capa_1" xmlns="http://www.w3.org/2000/svg" xmlns:xlink="http://www.w3.org/1999/xlink" x="0px" y="0px"
	 viewBox="0 0 512 512" style="enable-background:new 0 0 512 512;" xml:space="preserve">
<g>
	<g>
		<path d="M448,96c0-45.406-35.042-96-85.333-96c-23.229,0-39.729,2.813-55.688,5.521c-15.542,2.646-30.208,5.146-50.979,5.146
			s-35.438-2.5-50.979-5.146C189.063,2.813,172.563,0,149.333,0C99.042,0,64,50.594,64,96c0,30.669,23.875,98.9,45.772,143.087
			C101.1,290.993,114.104,466.749,143.458,503c6.021,7.438,12.313,9,16.542,9c36.479,0,39.625-45.083,42.958-92.823
			c4.479-64.313,10.896-109.844,53.042-109.844s48.563,45.531,53.042,109.844C312.375,466.917,315.521,512,352,512
			c4.229,0,10.521-1.563,16.542-9c29.354-36.25,42.358-212.001,33.686-263.91C424.125,194.901,448,126.669,448,96z"/>
	</g>
</g>
<g>
</g>
<g>
</g>
<g>
</g>
<g>
</g>
<g>
</g>
<g>
</g>
<g>
</g>
<g>
</g>
<g>
</g>
<g>
</g>
<g>
</g>
<g>
</g>
<g>
</g>
<g>
</g>
<g>
</g>
</svg>
